<?xml version="1.0" standalone="no"?>
<!DOCTYPE svg PUBLIC "-//W3C//DTD SVG 20010904//EN"
 "http://www.w3.org/TR/2001/REC-SVG-20010904/DTD/svg10.dtd">
<svg version="1.0" xmlns="http://www.w3.org/2000/svg"
 width="1091.000000pt" height="1091.000000pt" viewBox="0 0 1091.000000 1091.000000"
 preserveAspectRatio="xMidYMid meet">
<metadata>
Created by potrace 1.11, written by Peter Selinger 2001-2013
</metadata>
<g transform="translate(0.000000,1091.000000) scale(0.100000,-0.100000)"
fill="#000000" stroke="none">
<path d="M1843 10900 c-18 -5 -18 -188 -18 -5452 l0 -5448 502 0 501 0 1307
1307 1307 1307 1287 -1290 c708 -709 1295 -1295 1304 -1302 15 -12 47 17 284
251 147 146 375 370 505 499 l238 233 -1304 1309 -1303 1309 1318 1317 1318
1316 -275 280 c-151 153 -382 386 -512 517 l-236 238 -2392 -2392 c-1315
-1315 -2393 -2387 -2396 -2383 -2 5 -4 1893 -3 4197 2 3066 -1 4187 -9 4188
-65 3 -1410 3 -1423 -1z"/>
</g>
</svg>
